<svg width="14" height="14" viewBox="0 0 14 14" fill="none" xmlns="http://www.w3.org/2000/svg">
<path d="M4.7775 1.8825C4.6425 2.3625 4.575 2.865 4.575 3.375C4.575 6.435 7.065 8.925 10.125 8.925C10.635 8.925 11.1375 8.8575 11.6175 8.7225C10.8375 10.6425 8.9475 12 6.75 12C3.855 12 1.5 9.645 1.5 6.75C1.5 4.5525 2.8575 2.6625 4.7775 1.8825ZM6.75 0C3.0225 0 0 3.0225 0 6.75C0 10.4775 3.0225 13.5 6.75 13.5C10.4775 13.5 13.5 10.4775 13.5 6.75C13.5 6.405 13.47 6.06 13.425 5.73C12.69 6.7575 11.49 7.425 10.125 7.425C7.89 7.425 6.075 5.61 6.075 3.375C6.075 2.0175 6.7425 0.81 7.77 0.0749999C7.44 0.0299999 7.095 0 6.75 0Z" fill="#E8C364"/>
</svg>
